<!-- favicon.svg (solid pink bulb with white heart) -->
<svg xmlns="http://www.w3.org/2000/svg" viewBox="0 0 24 24">
  <!-- Bulb body -->
  <path fill="#FFC2D4" d="M12 3a7 7 0 0 1 7 7c0 2.5-1.2 4.4-3.1 5.7-.3.2-.5.6-.5 1V18
           a1 1 0 0 1-1 1H9.6a1 1 0 0 1-1-1v-2.3c0-.4-.2-.8-.5-1A6.6 6.6 0 0 1 5 10
           a7 7 0 0 1 7-7z"></path>
  <!-- Base (kept solid for clarity at favicon sizes) -->
  <rect x="9.2" y="18.2" width="5.6" height="1.6" rx="0.8" fill="#FFC2D4"></rect>
  <rect x="9" y="20.4" width="6" height="1.6" rx="0.8" fill="#FFC2D4"></rect>
  <rect x="10.5" y="22.2" width="3" height="1.4" rx="0.7" fill="#FFC2D4"></rect>
  <!-- Heart cutout -->
  <path fill="#FFFFFF" d="M12 12.6s-3-2-3-3.8c0-.9.7-1.6 1.6-1.6.7 0 1.3.4 1.7 1.0
           .4-.6 1.0-1.0 1.7-1.0.9 0 1.6.7 1.6 1.6
           c0 1.8-3 3.8-3 3.8z"></path>
</svg>
